<?xml version="1.0" standalone="no"?>
<!DOCTYPE svg PUBLIC "-//W3C//DTD SVG 20010904//EN"
 "http://www.w3.org/TR/2001/REC-SVG-20010904/DTD/svg10.dtd">
<svg version="1.0" xmlns="http://www.w3.org/2000/svg"
 width="1280.000000pt" height="1280.000000pt" viewBox="0 0 1280.000000 1280.000000"
 preserveAspectRatio="xMidYMid meet">
<g transform="translate(0.000000,1280.000000) scale(0.100000,-0.100000)"
fill="#004062" stroke="none">
<path d="M4601 12297 c-134 -260 -249 -478 -256 -486 -14 -14 -13 -15 -484
542 -129 152 -237 277 -240 277 -4 0 -58 -235 -120 -522 -63 -288 -116 -529
-118 -535 -3 -7 -9 -13 -14 -13 -5 0 -210 140 -455 310 -246 171 -449 309
-450 307 -2 -2 7 -233 21 -513 29 -596 29 -584 13 -584 -7 0 -239 81 -515 180
-276 99 -504 180 -507 180 -3 0 -6 -5 -6 -11 0 -7 72 -238 160 -515 88 -276
160 -507 160 -513 0 -16 -22 -15 -573 30 -279 23 -510 39 -513 36 -4 -3 103
-176 236 -383 200 -313 240 -379 228 -388 -8 -6 -211 -35 -452 -65 -249 -32
-436 -59 -436 -65 0 -5 172 -182 382 -393 290 -291 379 -386 371 -394 -7 -7
-233 -102 -502 -213 -270 -111 -491 -205 -493 -210 -2 -5 206 -131 461 -280
256 -149 466 -276 468 -282 2 -6 -190 -159 -427 -339 -373 -284 -448 -345
-425 -345 18 0 1031 -282 1038 -289 12 -12 38 25 -333 -455 -173 -223 -316
-410 -318 -415 -1 -4 241 -11 540 -14 298 -4 545 -10 550 -15 4 -4 -87 -232
-202 -507 -115 -274 -207 -501 -205 -504 3 -2 199 46 436 109 268 70 434 109
440 103 6 -6 -21 -168 -71 -432 -44 -233 -80 -431 -80 -442 0 -16 48 5 290
126 159 80 294 145 300 145 5 0 10 -6 10 -12 0 -7 -337 -985 -749 -2173 -411
-1188 -744 -2161 -740 -2163 5 -2 392 152 861 342 l852 346 630 -419 c347
-231 634 -417 637 -413 3 4 88 803 188 1776 173 1692 182 1771 205 1810 66
111 392 600 403 603 9 3 367 -505 410 -583 7 -13 87 -749 193 -1780 99 -968
183 -1776 187 -1797 l8 -37 633 419 c537 356 636 419 655 412 12 -5 394 -160
850 -345 455 -185 832 -336 838 -336 6 0 9 6 7 13 -3 6 -323 932 -712 2056
-397 1147 -704 2047 -699 2052 5 5 76 -28 163 -76 125 -68 156 -81 158 -67 1
9 -34 251 -78 536 -44 286 -80 523 -80 528 0 4 9 8 20 8 12 0 253 -57 536
-126 284 -69 517 -124 519 -122 2 2 -95 228 -216 503 -121 274 -216 502 -212
506 7 7 759 29 997 29 81 0 97 3 93 14 -3 8 -155 200 -336 426 -182 226 -331
418 -331 425 0 9 31 24 83 39 151 46 946 276 952 276 24 0 -50 58 -430 336
-239 176 -435 324 -435 329 0 6 207 137 461 290 253 154 460 284 460 289 0 6
-185 82 -413 171 -288 113 -413 166 -413 176 0 9 145 152 323 319 177 167 319
307 315 311 -5 4 -237 44 -518 89 -507 83 -555 92 -555 108 0 5 128 215 284
468 162 261 279 460 272 462 -7 1 -240 -20 -519 -48 -547 -54 -567 -55 -567
-40 0 6 70 243 155 527 86 284 154 518 152 519 -2 2 -230 -82 -506 -186 -277
-105 -510 -190 -519 -190 -13 0 -14 23 -9 193 19 569 29 899 25 902 -2 2 -200
-137 -441 -310 -240 -173 -443 -315 -450 -315 -17 0 -10 -26 -152 580 -59 250
-110 460 -114 467 -4 7 -129 -160 -301 -402 -162 -228 -300 -415 -306 -415 -7
0 -26 35 -42 78 -211 545 -334 858 -340 864 -4 4 -117 -205 -251 -465z"/>
</g>
</svg>
