<svg xmlns="http://www.w3.org/2000/svg" version="1.1" xmlns:xlink="http://www.w3.org/1999/xlink" xmlns:svgjs="http://svgjs.com/svgjs" width="512" height="512" x="0" y="0" viewBox="0 0 512 512" style="enable-background:new 0 0 512 512" xml:space="preserve" class=""><g><path d="M240.954 120.394c33.193 0 60.197-27.004 60.197-60.197S274.146 0 240.954 0s-60.197 27.004-60.197 60.197 27.004 60.197 60.197 60.197zm0-108.147c26.439 0 47.949 21.51 47.949 47.95s-21.51 47.95-47.949 47.95-47.95-21.51-47.95-47.95 21.51-47.95 47.95-47.95z" fill="#004062" data-original="#000000" class=""></path><path d="M236.855 64.747a6.12 6.12 0 0 0 7.321.658 6.126 6.126 0 0 0 2.679-6.845l-8.393-30.243a6.124 6.124 0 0 0-11.802 3.276l2.77 9.983-1.163-1.049a6.124 6.124 0 1 0-8.198 9.1zM132.16 234.132c.947.067 1.886.1 2.82.1 20.417 0 37.654-15.8 39.122-36.483 1.535-21.629-14.754-40.407-36.383-41.942-.947-.067-1.886-.1-2.82-.1-20.417.001-37.654 15.801-39.122 36.483-1.535 21.629 14.754 40.407 36.383 41.942zM266.944 327.407h-42.74c.054-.387.114-.772.143-1.167.718-9.737-6.594-18.211-16.33-18.928l-11.557-.852-14.795-34.498a6.123 6.123 0 0 0-11.255 4.827l12.29 28.657-27.168-2.002-36.666-38.144 28.975 19.702v-7.786c0-11.78-4.357-22.535-11.536-30.767-15.036.386-28.882-5.66-38.743-16.08H94.75c-24.836 0-44.97 20.134-44.97 44.97v61.815L33.716 235.74c-1.308-8.257-9.061-13.887-17.317-12.582-8.257 1.308-13.89 9.061-12.582 17.317l25.89 163.461a15.135 15.135 0 0 0 14.949 12.768h8.302l-20.696 84.463a8.649 8.649 0 0 0 6.342 10.459 8.648 8.648 0 0 0 10.459-6.342l21.705-88.58h58.974l21.706 88.58a8.65 8.65 0 0 0 16.801-4.117l-20.697-84.463h9.795c5.258 0 9.887-2.684 12.6-6.754l19.16 85.473c2.555 11.396 13.868 18.628 25.339 16.059 11.432-2.563 18.621-13.907 16.059-25.339L204.133 368.49h-42.161c-11.784 0-21.727-7.858-24.891-18.618-4.817-1.223-8.883-4.301-11.426-8.319L93.377 289.8l41.358 43.025a17.674 17.674 0 0 0 11.445 5.379l1.27.094a15.137 15.137 0 0 0-.615 4.245c0 8.359 6.777 15.136 15.136 15.136h104.972c8.359 0 15.136-6.777 15.136-15.136s-6.776-15.136-15.135-15.136zm-209.36 59.026-2.242-14.153a46.237 46.237 0 0 0 11.938 14.153z" fill="#004062" data-original="#000000" class=""></path><circle cx="388.635" cy="53.514" r="41.113" fill="#004062" data-original="#000000" class=""></circle><path d="M381.834 108.523c-1.934 0-3.394 1.811-3.043 3.713l2.533 11.68a3.095 3.095 0 0 0 3.043 2.532h10.318a3.095 3.095 0 0 0 3.043-2.532l2.533-11.68c.351-1.902-1.109-3.713-3.043-3.713z" fill="#004062" data-original="#000000" class=""></path><path d="m507.578 223.822-21.595-72.751c-7.442-25.068-30.902-42.548-57.052-42.548h-13.09c-1.523 7.919-7.962 37.679-20.225 47.009l2.128-10.105c.07-.334.073-.678.007-1.012l-2.499-12.703a2.537 2.537 0 0 0-2.489-2.047h-9.583a2.537 2.537 0 0 0-2.489 2.047l-2.499 12.703c-.066.334-.064.679.007 1.012l2.128 10.105c-12.263-9.331-18.702-39.09-20.225-47.009h-11.76c-26.149 0-49.61 17.479-57.051 42.548l-21.596 72.751c-2.96 9.971 2.614 20.475 12.53 23.613l53.061 16.839v223.835c0 13.195 10.548 23.892 23.743 23.892s23.892-10.697 23.892-23.892V297.836h10.103v190.272c0 13.195 10.697 23.892 23.892 23.892s23.743-10.697 23.743-23.892V264.694l54.392-17.26c9.913-3.138 15.487-13.641 12.527-23.612zm-172.145.439-23.839-7.544 16.265-54.79c1.317-4.437 4.035-8.208 7.574-10.898zm105.074.421v-74.585c4.186 2.713 7.427 6.853 8.905 11.83l16.264 54.79z" fill="#004062" data-original="#000000" class=""></path></g></svg>
