<?xml version="1.0" standalone="no"?>
<!DOCTYPE svg PUBLIC "-//W3C//DTD SVG 20010904//EN"
 "http://www.w3.org/TR/2001/REC-SVG-20010904/DTD/svg10.dtd">
<svg version="1.0" xmlns="http://www.w3.org/2000/svg"
 width="1280.000000pt" height="1280.000000pt" viewBox="-100 -250 1280.000000 1280.000000"
 preserveAspectRatio="xMidYMid meet">
<metadata>
Created by potrace 1.15, written by Peter Selinger 2001-2017
</metadata>
<g transform="translate(0.000000,1002.000000) scale(0.100000,-0.100000)"
fill="#004062" stroke="none">
<path d="M4765 10014 c-22 -2 -80 -11 -130 -20 -496 -88 -933 -478 -1239
-1109 -65 -133 -82 -190 -130 -435 -70 -353 -100 -731 -85 -1075 9 -197 12
-219 68 -570 55 -339 61 -378 62 -432 1 -26 6 -1 10 57 16 200 39 297 168 700
40 124 88 274 106 333 153 483 412 973 631 1193 314 313 600 373 948 197 149
-75 272 -161 446 -313 41 -36 104 -90 140 -119 36 -30 129 -112 207 -183 199
-182 302 -260 418 -318 125 -63 189 -79 341 -87 234 -12 329 37 427 218 60
109 81 189 81 314 0 130 -17 190 -98 356 -192 386 -534 697 -1077 978 -256
133 -547 237 -779 281 -36 6 -87 16 -115 21 -54 11 -336 20 -400 13z"/>
<path d="M8855 9602 c-287 -65 -532 -219 -690 -433 -61 -82 -135 -231 -168
-336 -110 -346 9 -765 295 -1039 114 -109 198 -163 360 -228 245 -98 540 -106
793 -21 372 125 624 405 732 813 26 100 24 311 -5 414 -64 226 -200 449 -349
573 -139 116 -285 191 -465 241 -128 35 -381 43 -503 16z"/>
<path d="M12700 7683 c-18 -94 -45 -163 -139 -351 -145 -289 -304 -538 -469
-733 -178 -212 -563 -546 -845 -733 -132 -88 -317 -186 -404 -215 -200 -67
-417 30 -627 279 -77 91 -154 242 -235 465 -187 509 -283 677 -457 801 -119
85 -245 123 -345 103 -171 -34 -356 -253 -421 -499 -19 -71 -23 -111 -23 -245
0 -186 12 -256 81 -463 176 -529 516 -969 997 -1291 179 -120 356 -171 592
-171 236 0 409 46 680 180 463 229 851 574 1152 1025 199 298 452 874 523
1194 40 179 42 221 29 479 l-13 242 -32 0 c-31 0 -32 -1 -44 -67z"/>
<path d="M4175 5879 c-133 -19 -251 -73 -322 -147 -49 -50 -115 -178 -139
-267 -57 -217 -5 -491 130 -678 55 -78 136 -161 304 -311 132 -117 133 -118
115 -139 -10 -12 -92 -103 -183 -202 -337 -369 -732 -775 -1250 -1285 -738
-727 -1095 -1090 -1664 -1688 -153 -161 -420 -428 -594 -593 -282 -267 -575
-560 -568 -566 1 -2 38 6 81 18 145 37 639 317 1570 887 516 317 785 478 1020
615 397 230 1317 774 1480 875 372 231 662 433 820 571 119 103 163 137 400
306 99 71 204 148 234 172 l53 43 112 -58 c138 -73 258 -150 358 -231 115 -93
125 -107 133 -196 l7 -77 -47 -69 c-62 -91 -192 -213 -314 -294 -54 -36 -233
-135 -397 -219 -165 -84 -445 -231 -624 -325 -510 -270 -996 -503 -1292 -622
-171 -68 -378 -177 -378 -199 0 -21 327 -27 529 -10 64 6 168 15 231 20 435
36 654 73 995 170 116 32 255 71 310 85 55 15 152 40 215 56 512 134 853 250
1125 384 436 214 806 562 961 902 55 120 64 152 64 233 0 211 -110 431 -380
760 -270 329 -503 568 -805 823 -71 61 -173 150 -225 198 -291 268 -787 629
-1046 761 -114 58 -539 234 -634 262 -67 20 -236 46 -287 45 -21 -1 -65 -5
-98 -10z"/>
</g>
</svg>
