<?xml version="1.0" standalone="no"?>
<!DOCTYPE svg PUBLIC "-//W3C//DTD SVG 20010904//EN"
 "http://www.w3.org/TR/2001/REC-SVG-20010904/DTD/svg10.dtd">
<svg version="1.0" xmlns="http://www.w3.org/2000/svg"
 width="1280.000000pt" height="1280.000000pt" viewBox="0 -150 1280.000000 1280.000000"
 preserveAspectRatio="xMidYMid meet">
<g transform="translate(0.000000,872.000000) scale(0.100000,-0.100000)"
fill="#004062" stroke="none">
<path d="M10330 8635 c-243 -125 -544 -249 -1185 -487 -481 -178 -788 -299
-988 -387 -189 -84 -397 -189 -397 -202 0 -5 127 -143 283 -305 155 -162 283
-301 285 -308 5 -22 -367 -281 -748 -522 -2460 -1554 -5392 -2433 -6960 -2088
-161 36 -338 95 -455 153 -58 28 -103 45 -106 39 -21 -33 -44 -214 -43 -333 2
-269 94 -477 295 -670 251 -241 611 -384 1134 -452 174 -22 700 -25 895 -5
708 74 1419 254 2107 536 1301 532 2704 1515 3972 2785 l233 234 344 -344
c217 -217 347 -340 353 -334 5 6 250 609 544 1340 295 732 543 1347 552 1368
20 49 14 48 -115 -18z"/>
<path d="M11990 6907 c-36 -18 -50 -53 -50 -125 0 -54 4 -67 25 -87 40 -41 92
-29 121 27 20 38 16 151 -6 172 -22 22 -62 28 -90 13z m52 -34 c14 -12 18 -31
18 -83 0 -68 -10 -90 -42 -90 -26 0 -38 32 -38 102 0 83 22 108 62 71z"/>
<path d="M12193 6910 c-46 -19 -71 -97 -54 -171 11 -49 32 -69 73 -69 38 0 75
40 83 91 8 45 -1 110 -18 133 -16 20 -56 28 -84 16z m42 -34 c22 -16 32 -107
16 -149 -14 -35 -50 -34 -68 3 -18 35 -16 111 3 138 18 26 24 27 49 8z"/>
<path d="M11783 6885 l-28 -25 25 3 c25 2 25 1 25 -78 0 -75 -1 -80 -22 -83
-25 -4 -31 -17 -10 -24 19 -7 117 3 117 12 0 4 -9 10 -20 13 -18 5 -20 14 -20
106 0 93 -1 101 -19 101 -11 0 -33 -11 -48 -25z"/>
<path d="M12345 6894 c-20 -20 -16 -73 6 -87 44 -28 90 20 75 78 -5 20 -13 25
-35 25 -16 0 -37 -7 -46 -16z m56 -18 c15 -32 -5 -73 -27 -55 -8 6 -14 24 -14
39 0 45 24 55 41 16z"/>
<path d="M12507 6878 c-61 -83 -134 -184 -142 -198 -8 -13 -6 -13 7 -2 24 19
170 223 165 229 -3 2 -16 -11 -30 -29z"/>
<path d="M12497 6772 c-24 -26 -22 -79 2 -92 28 -14 38 -13 61 10 22 22 27 69
8 88 -18 18 -53 15 -71 -6z m51 -45 c2 -28 0 -37 -13 -37 -18 0 -37 43 -28 65
11 30 38 12 41 -28z"/>
<path d="M11847 6352 l-97 -97 0 -3128 0 -3127 298 0 299 0 106 108 107 107 0
3118 0 3117 -308 0 -307 0 -98 -98z"/>
<path d="M10676 6289 c-20 -16 -26 -29 -26 -59 0 -46 13 -58 70 -62 39 -3 45
-6 42 -23 -6 -33 -23 -45 -64 -45 -43 0 -50 -22 -9 -28 70 -11 111 38 111 133
0 76 -18 105 -64 105 -19 0 -45 -9 -60 -21z m84 -39 c10 -24 10 -33 0 -45 -31
-37 -94 11 -70 54 17 32 55 27 70 -9z"/>
<path d="M10883 6295 c-30 -21 -47 -78 -40 -138 7 -59 29 -87 68 -87 65 0 89
36 89 135 0 52 -4 69 -20 85 -24 24 -67 26 -97 5z m66 -29 c16 -19 23 -95 13
-131 -12 -42 -57 -48 -72 -10 -13 34 -13 111 0 136 12 22 43 25 59 5z"/>
<path d="M11057 6292 c-24 -26 -22 -79 2 -92 29 -15 69 4 77 35 15 60 -40 100
-79 57z m48 -41 c0 -40 -19 -51 -35 -21 -14 27 -3 62 18 58 12 -2 17 -14 17
-37z"/>
<path d="M11201 6256 c-126 -172 -136 -186 -127 -186 10 0 178 231 173 237 -3
2 -24 -21 -46 -51z"/>
<path d="M11212 6174 c-15 -10 -22 -25 -22 -48 0 -43 22 -63 57 -50 36 12 50
57 29 89 -19 29 -33 31 -64 9z m43 -44 c0 -44 -31 -56 -41 -16 -8 35 2 58 23
54 13 -2 18 -13 18 -38z"/>
<path d="M10682 5737 l-102 -102 0 -2818 0 -2817 298 0 299 0 106 107 107 108
-3 2810 -2 2810 -300 3 -300 2 -103 -103z"/>
<path d="M9522 5694 c-26 -18 -29 -60 -5 -86 15 -17 15 -20 -5 -41 -45 -48
-18 -97 52 -97 73 0 109 59 65 106 -20 21 -20 24 -5 46 19 27 21 59 4 76 -17
17 -79 15 -106 -4z m72 -20 c20 -19 20 -29 0 -48 -28 -29 -79 19 -53 50 15 18
34 18 53 -2z m4 -116 c35 -35 -4 -82 -48 -58 -19 10 -28 49 -13 63 11 11 48 8
61 -5z"/>
<path d="M9719 5691 c-21 -17 -24 -30 -27 -99 -4 -71 -2 -82 17 -101 30 -30
81 -28 111 4 39 41 41 162 4 199 -21 22 -77 20 -105 -3z m81 -30 c14 -27 13
-134 -2 -149 -17 -17 -43 -15 -59 4 -14 17 -18 131 -5 152 11 19 54 14 66 -7z"/>
<path d="M9902 5697 c-6 -6 -13 -24 -17 -39 -9 -36 24 -71 57 -59 57 20 57
111 -1 111 -15 0 -33 -6 -39 -13z m56 -41 c2 -16 -1 -33 -7 -39 -16 -16 -41
11 -41 45 0 25 4 29 23 26 16 -2 23 -11 25 -32z"/>
<path d="M10001 5594 c-46 -63 -81 -117 -78 -120 2 -3 40 44 84 103 92 126 97
133 86 133 -4 0 -46 -52 -92 -116z"/>
<path d="M10055 5565 c-27 -26 -31 -46 -15 -76 13 -23 53 -25 74 -3 23 22 21
81 -3 94 -27 14 -29 13 -56 -15z m45 -9 c6 -8 10 -25 8 -38 -4 -32 -42 -32
-46 0 -7 46 14 66 38 38z"/>
<path d="M9498 5152 l-98 -98 0 -2527 0 -2527 298 0 299 0 106 108 107 107 -3
2515 -2 2515 -304 3 -305 2 -98 -98z"/>
<path d="M8542 5100 c-44 -18 -66 -121 -41 -187 13 -35 25 -43 71 -43 57 0 78
34 78 126 0 61 -4 78 -20 94 -21 21 -51 24 -88 10z m56 -32 c30 -38 24 -151
-9 -168 -33 -18 -59 20 -59 86 0 30 5 64 10 75 12 22 43 25 58 7z"/>
<path d="M8712 5094 c-40 -28 -25 -104 20 -104 46 0 75 72 42 104 -19 20 -34
20 -62 0z m46 -47 c2 -28 -1 -37 -12 -37 -21 0 -39 36 -31 61 11 34 40 19 43
-24z"/>
<path d="M8829 5023 c-34 -48 -74 -103 -87 -120 -13 -18 -20 -33 -15 -33 5 0
23 19 39 43 17 23 54 75 84 115 29 40 51 75 48 78 -3 2 -34 -35 -69 -83z"/>
<path d="M8302 5088 c3 -7 25 -14 51 -16 34 -2 47 -7 47 -18 0 -8 -16 -51 -36
-95 -36 -78 -39 -97 -12 -86 14 5 98 190 98 215 0 8 -22 12 -76 12 -56 0 -75
-3 -72 -12z"/>
<path d="M8851 4966 c-7 -8 -11 -32 -9 -53 3 -36 5 -38 38 -38 27 0 37 6 49
27 22 38 2 78 -38 78 -16 0 -34 -6 -40 -14z m59 -47 c0 -35 -13 -44 -34 -23
-19 18 -21 45 -4 62 17 17 38 -4 38 -39z"/>
<path d="M8327 4532 l-97 -97 0 -2218 0 -2217 298 0 299 0 106 107 107 108 0
2208 0 2207 -308 0 -307 0 -98 -98z"/>
<path d="M7224 4517 c-22 -19 -28 -34 -32 -80 -6 -72 2 -103 33 -123 52 -34
119 11 117 79 -1 42 -27 60 -74 53 -35 -6 -38 -4 -38 18 0 35 27 58 63 54 18
-2 32 2 34 10 8 23 -73 15 -103 -11z m77 -118 c23 -44 -25 -91 -59 -57 -13 13
-16 60 -5 71 14 15 53 6 64 -14z"/>
<path d="M7411 4521 c-24 -24 -35 -78 -28 -139 9 -81 73 -108 128 -53 26 27
29 36 29 98 0 88 -16 113 -71 113 -25 0 -46 -7 -58 -19z m72 -15 c32 -32 28
-148 -5 -170 -13 -8 -22 -6 -37 8 -40 36 -24 176 19 176 5 0 15 -6 23 -14z"/>
<path d="M7591 4526 c-7 -8 -11 -32 -9 -53 3 -35 6 -38 35 -41 23 -2 35 3 47
20 19 27 21 59 4 76 -16 16 -63 15 -77 -2z m57 -50 c-4 -39 -29 -41 -42 -4 -7
19 -6 31 4 43 19 23 42 0 38 -39z"/>
<path d="M7763 4518 c-38 -44 -153 -208 -145 -208 7 0 141 176 166 218 11 19
1 14 -21 -10z"/>
<path d="M7746 4404 c-24 -23 -21 -81 5 -94 43 -24 95 42 69 89 -13 25 -52 28
-74 5z m52 -38 c4 -36 -11 -54 -33 -36 -15 13 -20 51 -8 64 15 15 38 0 41 -28z"/>
<path d="M7151 3973 l-101 -98 0 -1937 0 -1938 298 0 299 0 106 107 107 108 0
1928 0 1927 -304 0 -304 0 -101 -97z"/>
<path d="M6070 3872 l0 -58 43 -10 c40 -8 42 -11 42 -44 0 -35 0 -35 -48 -38
-59 -4 -59 -26 -1 -30 57 -4 94 26 94 78 0 43 -8 51 -60 60 -31 5 -35 9 -35
35 0 28 3 30 43 33 28 2 42 8 42 18 0 11 -14 14 -60 14 l-60 0 0 -58z"/>
<path d="M6279 3911 c-20 -16 -24 -30 -27 -95 -5 -101 10 -128 70 -124 61 4
83 39 83 128 0 53 -4 73 -19 89 -24 27 -76 28 -107 2z m81 -30 c5 -11 10 -43
10 -71 0 -28 -5 -60 -10 -71 -13 -23 -43 -25 -60 -4 -14 17 -19 120 -8 148 10
23 55 22 68 -2z"/>
<path d="M6454 3905 c-34 -52 13 -113 62 -80 27 17 34 71 12 93 -20 20 -56 14
-74 -13z m61 -15 c8 -26 -3 -60 -20 -60 -15 0 -25 22 -25 56 0 30 36 34 45 4z"/>
<path d="M6561 3814 c-46 -63 -81 -118 -78 -120 3 -3 33 34 68 83 35 48 74
103 87 121 13 17 20 32 15 32 -5 0 -47 -52 -92 -116z"/>
<path d="M6623 3800 c-47 -19 -38 -110 10 -110 51 0 81 87 38 110 -22 11 -19
11 -48 0z m41 -43 c7 -19 6 -31 -1 -38 -19 -19 -43 -2 -43 29 0 50 28 56 44 9z"/>
<path d="M5984 3358 l-104 -102 0 -1628 0 -1628 299 0 299 0 106 108 106 107
0 1616 c0 1465 -1 1617 -16 1623 -9 3 -144 6 -301 6 l-286 0 -103 -102z"/>
<path d="M4869 3313 c-27 -32 -79 -132 -79 -153 0 -17 7 -20 45 -20 39 0 47
-3 55 -25 12 -32 28 -32 40 -1 5 13 14 27 20 31 8 5 7 12 -4 24 -10 10 -16 42
-18 86 -3 62 -5 70 -24 73 -11 2 -27 -5 -35 -15z m19 -85 c-3 -47 -6 -53 -27
-56 -41 -6 -46 13 -17 62 15 25 31 46 37 46 6 0 9 -22 7 -52z"/>
<path d="M5020 3305 c-20 -21 -25 -39 -28 -93 -5 -103 26 -137 103 -118 60 15
77 191 21 228 -24 17 -73 8 -96 -17z m80 -24 c11 -21 14 -120 4 -145 -7 -19
-45 -21 -62 -4 -12 12 -17 124 -6 152 9 22 51 20 64 -3z"/>
<path d="M5206 3317 c-21 -15 -24 -70 -6 -92 30 -36 84 1 82 56 -1 46 -38 64
-76 36z m49 -47 c0 -44 -31 -56 -41 -16 -8 35 2 58 23 54 13 -2 18 -13 18 -38z"/>
<path d="M5373 3308 c-19 -22 -131 -179 -148 -207 -5 -9 -4 -12 2 -8 9 6 145
189 167 225 12 19 1 14 -21 -10z"/>
<path d="M5344 3175 c-25 -39 -9 -79 33 -83 38 -4 56 21 51 71 -3 28 -7 32
-35 35 -25 3 -35 -2 -49 -23z m54 3 c16 -16 15 -53 -1 -67 -18 -15 -37 5 -37
39 0 39 15 51 38 28z"/>
<path d="M4802 2767 l-102 -102 0 -1333 0 -1332 299 0 299 0 106 108 106 107
0 1328 0 1327 -303 0 -302 0 -103 -103z"/>
<path d="M3638 2718 c-32 -11 -39 -33 -8 -23 28 9 58 -3 65 -26 9 -26 -11 -49
-41 -49 -35 0 -29 -17 10 -30 36 -11 49 -30 40 -54 -8 -21 -32 -27 -72 -20
-26 5 -34 4 -30 -7 6 -19 54 -29 93 -18 53 15 72 64 38 101 -13 15 -14 23 -5
44 18 37 15 61 -10 78 -25 18 -41 19 -80 4z"/>
<path d="M3832 2705 c-36 -30 -50 -99 -33 -163 13 -46 53 -68 96 -52 72 27 87
198 20 228 -37 17 -50 15 -83 -13z m75 -35 c19 -38 16 -114 -5 -140 -40 -50
-82 18 -69 112 8 62 49 77 74 28z"/>
<path d="M4006 2704 c-19 -18 -21 -65 -4 -82 43 -43 106 21 82 82 -8 21 -58
21 -78 0z m54 -14 c14 -27 3 -62 -18 -58 -27 5 -29 78 -3 78 6 0 15 -9 21 -20z"/>
<path d="M4119 2623 c-39 -54 -76 -104 -82 -111 -5 -7 -7 -15 -5 -18 3 -3 42
45 87 107 46 61 80 113 77 116 -2 3 -37 -39 -77 -94z"/>
<path d="M4157 2582 c-33 -36 -18 -92 23 -92 36 0 60 24 60 59 0 50 -50 70
-83 33z m51 -39 c-4 -44 -24 -54 -38 -19 -12 33 -3 56 22 56 16 0 19 -6 16
-37z"/>
<path d="M3632 2147 l-102 -102 0 -1023 0 -1022 303 0 303 0 102 104 102 103
0 1022 0 1021 -303 0 -302 0 -103 -103z"/>
<path d="M2483 2103 c-24 -9 -14 -30 12 -25 14 2 32 -1 40 -8 28 -23 17 -63
-30 -119 -25 -30 -44 -59 -42 -65 5 -16 139 -15 145 2 2 8 -9 12 -37 12 -47 0
-59 13 -37 43 9 12 28 37 41 56 27 37 32 80 13 99 -12 12 -81 15 -105 5z"/>
<path d="M2681 2088 c-38 -40 -41 -159 -6 -198 28 -31 78 -26 109 11 22 26 26
40 26 98 0 86 -16 111 -70 111 -27 0 -45 -7 -59 -22z m87 -84 c4 -81 -3 -104
-33 -104 -33 0 -45 27 -45 99 0 73 19 101 54 78 17 -11 22 -26 24 -73z"/>
<path d="M2861 2096 c-7 -8 -11 -32 -9 -53 3 -36 5 -38 38 -38 27 0 37 6 49
27 22 38 2 78 -38 78 -16 0 -34 -6 -40 -14z m59 -47 c0 -33 -15 -45 -35 -29
-18 15 -19 52 -3 68 17 17 38 -4 38 -39z"/>
<path d="M2962 1994 c-46 -64 -81 -118 -79 -121 3 -2 23 19 44 49 93 127 134
188 126 188 -4 0 -45 -52 -91 -116z"/>
<path d="M3017 1972 c-28 -31 -27 -88 3 -97 31 -10 57 3 68 34 20 57 -34 105
-71 63z m49 -27 c8 -34 -2 -57 -23 -53 -19 3 -29 38 -19 64 9 23 35 16 42 -11z"/>
<path d="M2457 1551 l-97 -98 0 -727 0 -726 303 0 302 0 103 103 102 102 0
723 0 722 -308 0 -308 0 -97 -99z"/>
<path d="M1305 1485 l-30 -25 25 3 c25 2 25 1 25 -78 0 -75 -1 -80 -22 -83
-13 -2 -23 -10 -23 -18 0 -11 15 -14 65 -14 49 0 65 3 65 14 0 7 -9 16 -20 19
-17 4 -20 15 -22 103 -3 112 -12 122 -63 79z"/>
<path d="M1489 1491 c-21 -17 -24 -30 -27 -99 -4 -71 -2 -82 18 -102 31 -31
86 -24 114 13 29 39 30 155 2 186 -24 27 -76 28 -107 2z m81 -30 c5 -11 10
-43 10 -71 0 -28 -5 -60 -10 -71 -13 -23 -43 -25 -61 -3 -14 17 -19 117 -7
147 10 23 55 22 68 -2z"/>
<path d="M1664 1486 c-32 -51 6 -108 56 -83 28 14 40 68 19 93 -18 22 -57 17
-75 -10z m61 -16 c9 -29 -4 -62 -23 -58 -12 2 -18 15 -20 41 -3 31 0 37 17 37
11 0 22 -9 26 -20z"/>
<path d="M1771 1395 c-46 -64 -81 -118 -79 -121 3 -2 34 35 69 83 34 48 74
103 87 121 13 17 20 32 15 32 -5 0 -47 -52 -92 -115z"/>
<path d="M1840 1383 c-37 -13 -54 -75 -28 -101 18 -18 53 -15 71 6 24 26 22
79 -2 92 -11 5 -21 10 -23 9 -2 0 -10 -3 -18 -6z m30 -33 c14 -27 3 -62 -18
-58 -27 5 -29 78 -3 78 6 0 15 -9 21 -20z"/>
<path d="M1292 937 l-102 -102 0 -418 0 -417 302 0 303 0 102 102 103 103 0
417 0 418 -303 0 -302 0 -103 -103z"/>
</g>
</svg>
